<?xml version="1.0" encoding="utf-8"?>
<!-- Generator: Adobe Illustrator 24.0.3, SVG Export Plug-In . SVG Version: 6.00 Build 0)  -->
<svg version="1.1" id="Calque_1" xmlns="http://www.w3.org/2000/svg" xmlns:xlink="http://www.w3.org/1999/xlink" x="0px" y="0px"
	 viewBox="0 0 70 70" style="enable-background:new 0 0 70 70;" xml:space="preserve">
<style type="text/css">
	.st0{fill:#FFCDC6;}
	.st1{fill:#151616;}
</style>
<path class="st0" d="M59.2,11c0-0.7-0.2-1.4-0.5-2c-0.4-0.8-1.1-1.4-1.9-1.8c-0.6-0.3-1.3-0.5-1.9-0.5c-0.9,0-1.9,0.3-2.6,0.9
	L34.5,20.8l0,0L19.6,9.5l-2.7-2c-0.7-0.6-1.7-0.9-2.7-0.9c-0.7,0-1.4,0.2-2,0.5c-1.3,0.7-2.8,2.2-2.8,3.8v25.6
	c0,1.5,0.8,2.8,1.9,3.6c0.7,0.5,1.5,0.7,2.4,0.7c2.4,0,4.3-1.9,4.3-4.3v-17l13.6,10.1c0.8,0.6,1.7,0.9,2.8,0.9c1.1,0,2-0.3,2.8-0.9
	l13.4-10v1.6c0,1.3,0,2.8,0,4.4c0,5.3,0,11.6,0,11.7c0,1.9,0.1,7.7-3.7,11.5c-2.7,2.7-6.8,4.1-12.5,4.1c-3.1,0-7.4-0.7-10.7-3.7
	c-0.8-0.7-1.7-1.1-2.8-1.1c-1.2,0-2.5,0.5-3.3,1.5c-0.8,0.8-1.2,2-1.1,3.2s0.6,2.3,1.4,3.1c0.2,0.2,0.3,0.3,0.5,0.5
	c4.4,3.8,10.2,6,15.9,6h0c7.6,0,14.1-2.4,18.6-7c4.1-4.2,6.2-10.4,6.1-18.1C59.2,37.1,59.2,13.7,59.2,11z"/>
<path class="st1" d="M62.6,14c0-0.9-0.2-1.8-0.7-2.5l0,0l-1.9-3.1c-0.6-1.1-1.5-2-2.6-2.6c-0.8-0.4-1.7-0.6-2.7-0.6
	c-1.3,0-2.6,0.4-3.6,1.2L34.5,18.8L17.9,6.2c-1-0.8-2.3-1.2-3.7-1.2c-1,0-1.9,0.2-2.7,0.6c-1.8,0.9-3.7,2.9-3.7,5.3v25.6
	c0,1.9,0.9,3.6,2.3,4.7l0,0l0,0l0.3,0.2l3.1,2.3l0,0c0.8,0.6,1.8,0.9,2.9,0.9c2.8,0,5.1-2.3,5.1-5.1V26.6c0,0,7.8,5.7,10,7.3
	c2.2,1.6,5.1,1.4,6.9,0.1L48.9,26c0,4.6,0,11.2,0,11.3c0,1.7,0.1,7-3.2,10.3c-2.3,2.4-6.2,3.6-11.3,3.6c-2.8,0-6.7-0.6-9.7-3.3
	c-1.1-1-2.4-1.5-3.9-1.5c-1.7,0-3.3,0.7-4.5,2c-1,1.2-1.6,2.8-1.5,4.4c0.1,1.6,0.8,3.2,1.9,4.2c4.6,4.7,14.5,7.9,20.2,7.9
	c0,0,0,0,0,0c8.3,0,14.7-2.7,19.2-7.3c4.3-4.4,6.5-11,6.4-18.6C62.7,39,62.6,14,62.6,14z M53,55.3c-4.5,4.6-11,7-18.6,7h0
	c-5.7,0-11.5-2.2-15.9-6c-0.2-0.2-0.4-0.3-0.5-0.5c-0.8-0.8-1.4-1.9-1.4-3.1s0.3-2.4,1.1-3.2c0.9-0.9,2.1-1.5,3.3-1.5
	c1,0,2,0.4,2.8,1.1c3.3,3,7.7,3.7,10.7,3.7c5.6,0,9.8-1.4,12.5-4.1c3.8-3.8,3.7-9.6,3.7-11.5c0-0.2,0-6.4,0-11.7c0-1.6,0-3.1,0-4.4
	v-1.6l-13.4,10c-0.7,0.6-1.7,0.9-2.8,0.9c-1.1,0-2-0.3-2.8-0.9L18,19.5v17c0,2.4-1.9,4.3-4.3,4.3c-0.9,0-1.7-0.3-2.4-0.7
	c-1.2-0.8-1.9-2.1-1.9-3.6V10.9c0-1.7,1.4-3.2,2.8-3.8c0.6-0.3,1.3-0.5,2-0.5c1,0,2,0.3,2.7,0.9l2.7,2l14.9,11.4l0,0L52.2,7.6
	C53,7,53.9,6.7,54.8,6.7c0.7,0,1.3,0.2,1.9,0.5c0.8,0.4,1.5,1.1,1.9,1.8c0.3,0.6,0.5,1.3,0.5,2c0,2.7,0,26.1,0,26.2
	C59.3,44.8,57.1,51.1,53,55.3z"/>
</svg>
